PathFileType	4	(X/Y/Z)	C:\Users\alexw\Dropbox\ABI\Level_8_Lab\OpenSim Tools\ProcessingTrialDataFromVicon\Output\AB08\_12Mar_ss_12ms_01\_12Mar_ss_12ms_01.trc
DataRate	CameraRate	NumFrames	NumMarkers	Units	OrigDataRate	OrigDataStartFrame	OrigNumFrames
200.000000	200.000000	9	42	mm	200.000000	4578	6093
Frame#	Time	LASI			RASI			LPSI			RPSI			LTH1			LTH2			LTH3			LTH4			LMFC			LLFC			LTB1			LTB2			LTB3			LTB4			LMMAL			LLMAL			LCAL			LToe			LMT1			LMT5			RTH1			RTH2			RTH3			RTH4			RMFC			RLFC			RTB1			RTB2			RTB3			RTB4			RMMAL			RLMAL			RCAL			RToe			RMT1			RMT5			C7			T10			LACR1			RACR1			CLAV			RBack			
		X1	Y1	Z1	X2	Y2	Z2	X3	Y3	Z3	X4	Y4	Z4	X5	Y5	Z5	X6	Y6	Z6	X7	Y7	Z7	X8	Y8	Z8	X9	Y9	Z9	X10	Y10	Z10	X11	Y11	Z11	X12	Y12	Z12	X13	Y13	Z13	X14	Y14	Z14	X15	Y15	Z15	X16	Y16	Z16	X17	Y17	Z17	X18	Y18	Z18	X19	Y19	Z19	X20	Y20	Z20	X21	Y21	Z21	X22	Y22	Z22	X23	Y23	Z23	X24	Y24	Z24	X25	Y25	Z25	X26	Y26	Z26	X27	Y27	Z27	X28	Y28	Z28	X29	Y29	Z29	X30	Y30	Z30	X31	Y31	Z31	X32	Y32	Z32	X33	Y33	Z33	X34	Y34	Z34	X35	Y35	Z35	X36	Y36	Z36	X37	Y37	Z37	X38	Y38	Z38	X39	Y39	Z39	X40	Y40	Z40	X41	Y41	Z41	X42	Y42	Z42	

4578	22.88	330.95383	969.98682	-912.65106	588.13959	981.74878	-905.15424	400.90665	996.26068	-689.98694	525.81598	989.39276	-683.30505	333.04672	686.25519	-941.80688	324.42105	652.75244	-922.15228	376.02200	610.68744	-918.78821	357.25888	645.40918	-931.42267	447.27029	515.08887	-854.36853	319.69971	516.32025	-835.68616	300.75882	414.75955	-806.49744	306.60147	332.99863	-787.04840	328.17722	325.17810	-835.92828	318.15549	364.96365	-833.87878	432.97372	120.73396	-771.30115	346.09955	115.07254	-756.85645	387.20380	57.06173	-674.88373	401.51523	39.52210	-980.50397	433.17053	45.44452	-888.80505	310.14560	41.13973	-870.87616	627.14722	742.77649	-1013.64000	625.73651	677.41309	-1028.63270	668.34930	647.33337	-996.67603	667.38049	704.86023	-985.90454	544.37183	532.54559	-1014.95000	669.48840	544.70282	-971.76331	667.95190	433.62537	-937.58405	652.30896	398.07526	-929.26099	634.51221	355.16998	-908.23273	662.91010	378.24390	-867.81250	529.81891	212.18677	-773.15533	613.54901	215.83595	-733.91125	552.10083	207.26970	-648.17670	573.16248	38.73508	-896.77710	536.13574	79.44786	-816.81512	649.66986	94.76637	-792.50171	430.79770	1497.64490	-761.71545	427.13269	1245.09070	-688.67841	269.82617	1463.28560	-842.35065	594.31873	1467.76220	-804.00806	446.63913	1424.27100	-912.35913	549.40063	1398.23220	-692.14142
4579	22.885	330.56342	969.74207	-910.72717	587.55432	981.81024	-904.48621	401.15948	996.35126	-688.99567	525.93457	989.57056	-683.18091	332.99417	685.36334	-938.54230	324.35181	652.06158	-918.73340	375.95920	610.07367	-914.89050	357.16962	644.62488	-927.90265	447.38165	514.71692	-850.28210	319.93649	516.19031	-831.01434	301.06799	414.79279	-801.59607	306.75311	332.99695	-781.80115	328.32339	325.33240	-830.72754	318.57901	364.85654	-828.87805	433.39014	120.49004	-765.71234	346.27133	115.25460	-750.95331	387.25500	57.19654	-668.82391	401.89441	39.78091	-974.65344	433.09091	45.42661	-882.69171	310.16333	41.20830	-864.84784	625.83124	745.04230	-1015.07750	624.22913	679.80200	-1030.44010	667.36060	649.55469	-999.17499	666.38196	706.92365	-987.86493	543.34332	535.00513	-1017.08690	668.78131	546.54669	-974.92755	667.27643	434.29779	-943.25500	651.18591	398.45081	-936.04144	634.91138	355.50067	-916.05347	662.69495	377.22293	-874.98395	530.27844	208.47821	-784.21332	613.99707	210.84354	-744.94427	552.68097	199.20656	-659.90991	573.03076	39.49849	-913.62280	536.70886	77.78263	-833.23438	650.16278	91.80837	-807.41748	430.87976	1497.77870	-761.67645	426.94803	1245.34400	-688.24359	270.15738	1463.42100	-842.72302	594.52155	1467.57080	-803.49194	447.15298	1424.12330	-912.14581	549.09290	1398.38720	-691.57813
4580	22.89	330.51816	970.15558	-910.51343	587.05988	981.91071	-903.81750	401.30005	996.30029	-688.04541	526.16119	989.79749	-681.57709	332.77347	684.43323	-935.35236	324.18942	651.35870	-915.12842	376.00806	609.27667	-910.86316	357.04199	643.69989	-924.41290	447.34695	514.15515	-845.95319	320.01083	516.09869	-826.40320	301.15097	414.83261	-796.75446	306.84512	333.22180	-776.71460	328.45129	325.13559	-825.39545	318.64832	364.81082	-823.91699	433.48883	120.55562	-759.69635	346.37656	115.40074	-744.92706	387.27130	57.29172	-662.76514	401.95419	39.70485	-968.62201	433.11548	45.33815	-876.63702	309.97806	41.35551	-858.67169	624.36041	747.11682	-1016.20410	622.73163	681.95892	-1032.02700	666.30286	651.63062	-1001.58610	665.27930	708.90961	-989.84320	542.18335	537.25757	-1018.98070	668.06140	548.35028	-977.87244	666.71002	435.07449	-948.72479	650.05023	398.81030	-942.53168	634.03180	354.86035	-923.10632	662.61945	376.06476	-882.02783	530.77527	204.69193	-795.52289	614.42194	205.92618	-756.12115	552.96136	191.58025	-671.23944	574.73163	40.20750	-930.05731	537.38745	75.87177	-848.79816	651.13379	89.03584	-822.13623	431.02029	1497.80870	-761.59937	426.71201	1245.59020	-687.77094	270.47296	1463.54720	-843.12305	594.72400	1467.31820	-802.97168	447.54922	1423.84780	-911.88013	548.78381	1398.52560	-691.01880
4581	22.895	330.45062	970.21857	-909.60315	586.48627	981.95142	-903.13086	401.50717	996.24854	-687.01019	526.46399	989.60175	-682.49213	332.63986	683.54181	-932.09973	324.05988	650.54584	-911.42389	375.54819	608.50342	-907.31067	356.09317	642.86139	-920.30292	447.38654	513.71246	-841.62274	320.22424	515.94183	-821.82910	301.40897	414.82428	-791.83838	306.97049	333.22974	-771.55634	328.78482	324.93655	-820.31134	319.43320	364.84305	-819.29388	433.53796	120.61335	-753.76111	346.42386	115.59743	-738.93872	387.36926	57.44633	-656.76294	401.98553	39.58205	-962.51257	433.06305	45.35108	-870.53210	310.06601	41.24001	-852.65985	622.70166	749.09851	-1017.28260	621.30951	684.03949	-1033.51290	665.18097	653.63422	-1003.74960	664.10339	710.81812	-991.61517	541.05969	539.29181	-1020.73670	667.35236	550.03638	-980.53644	666.11023	435.77014	-953.95660	650.21881	399.52740	-948.51025	633.76056	354.74527	-930.49500	662.46545	374.89948	-889.22223	531.49890	201.06929	-807.69397	614.84497	200.96373	-767.43140	553.65375	183.55186	-683.25293	575.62329	41.17728	-946.83386	538.36255	74.08171	-864.14825	651.60260	86.30872	-837.50275	431.19308	1497.84790	-761.58514	426.51392	1245.81650	-687.24091	270.77606	1463.58110	-843.49536	594.93994	1467.01160	-802.44025	448.01904	1423.57340	-911.60779	548.55463	1398.59750	-690.54346
4582	22.9	330.38922	970.12726	-908.47577	585.83276	981.91266	-902.30511	401.70276	996.13208	-685.94690	526.69513	989.65179	-681.56848	332.46646	682.57245	-928.76825	323.86221	649.93494	-907.94244	375.28387	607.64294	-903.62378	355.91006	641.90295	-916.94861	447.39847	513.43579	-837.23700	320.34268	515.82813	-817.26721	301.54050	415.02856	-787.04712	306.75558	333.45947	-766.06451	328.86969	324.99396	-814.98523	319.74249	364.73840	-814.23547	433.57785	120.70764	-747.97595	346.56094	115.68880	-732.94684	387.45517	57.56377	-650.65674	401.90219	39.47786	-956.47211	432.99197	45.52145	-865.01349	309.77988	41.16067	-846.35156	621.12421	750.95929	-1018.14560	619.72717	686.20612	-1035.27990	663.89557	655.45959	-1005.78640	662.91748	712.61322	-993.20178	539.98431	541.15002	-1022.16670	666.51251	551.56329	-983.03058	665.39294	436.36111	-959.19110	649.74585	399.91257	-954.69800	633.37524	354.62653	-937.75055	662.24518	373.70248	-896.15576	531.94891	197.32336	-819.12714	615.48651	196.02525	-778.91833	553.91925	175.87465	-695.00354	576.64099	42.34048	-963.60126	538.22351	72.95171	-881.03235	652.53125	83.72505	-852.62140	431.34824	1497.84990	-761.54095	426.32565	1245.94040	-686.72467	271.10355	1463.56930	-843.87592	595.20313	1466.72360	-801.94208	448.45917	1423.22750	-911.41913	548.30273	1398.66240	-690.00909
4583	22.905	330.30008	969.90179	-907.30927	585.30298	981.94147	-901.60236	401.94223	995.97797	-684.90588	526.93304	989.59454	-680.65283	332.41440	681.67096	-925.65234	323.69080	649.11987	-904.35266	375.24582	606.92627	-899.67950	355.82877	640.93396	-913.46948	447.48047	512.96326	-832.83368	320.50363	515.64227	-812.72754	301.72147	414.98734	-782.24225	306.86072	333.58963	-760.90063	328.98734	324.97424	-809.72144	319.71329	364.63107	-809.06348	433.49637	120.77920	-742.42987	346.59000	115.86859	-726.98322	387.60117	57.60770	-644.63690	401.87241	39.40493	-950.32562	433.01208	45.37614	-858.13873	310.01978	41.26106	-840.38739	619.43036	752.63971	-1018.93490	617.91364	687.90790	-1036.33030	662.69189	657.24872	-1007.70230	661.64435	714.25342	-994.80688	538.78387	542.78046	-1023.54390	664.92426	552.59857	-986.32617	664.67230	436.89905	-964.38031	649.08466	400.37949	-960.71130	633.06036	354.49387	-944.86108	662.07013	372.65408	-902.94281	532.62030	193.54193	-830.78442	615.97845	191.18289	-790.58667	554.49628	168.23363	-707.28174	577.83533	43.65660	-980.23645	539.25983	71.54497	-896.74548	653.62054	81.62766	-867.64240	431.50900	1497.78090	-761.53125	426.20074	1246.02560	-686.32660	271.46423	1463.49480	-844.21509	595.40881	1466.36960	-801.53717	449.00165	1422.88780	-911.19391	548.09192	1398.65970	-689.46710
4584	22.91	330.24646	969.55762	-906.23364	584.84119	981.96887	-900.90033	402.10547	995.79199	-683.86218	527.17529	989.50751	-679.79559	332.23502	680.77405	-922.33002	323.62708	648.46118	-900.87628	374.79980	605.99146	-896.29742	355.62350	639.98828	-909.96783	447.60745	512.71356	-828.53259	320.57663	515.51184	-808.28101	301.74600	415.06906	-777.33734	306.99680	333.76889	-755.71393	329.05630	324.74078	-804.74719	319.83069	364.64230	-804.02551	433.28137	120.66260	-737.52454	346.65463	116.02765	-720.98322	387.55829	57.63364	-638.65137	401.87582	39.31308	-944.21442	432.98590	45.26265	-851.80383	309.99457	41.22848	-834.24823	617.74268	754.21027	-1019.49750	616.16571	689.67096	-1037.50330	661.34399	658.87030	-1009.41360	660.30157	715.78461	-996.20276	537.59314	544.20050	-1024.71370	663.90002	553.83929	-988.72656	664.05255	437.49670	-969.12592	648.62262	400.76154	-966.58197	632.74243	354.36401	-951.84131	661.95715	371.51614	-909.72498	533.46088	189.78047	-842.37280	616.68121	186.40637	-802.31915	555.09064	160.60768	-719.84839	579.17896	45.25658	-996.79114	540.34283	70.24219	-912.49292	654.42383	79.63082	-883.11810	431.72760	1497.66970	-761.55621	426.08026	1246.06690	-685.79163	271.80835	1463.39250	-844.52997	595.66949	1465.96280	-801.01392	449.46872	1422.49330	-910.97626	547.91766	1398.57090	-688.96283
4585	22.915	330.27890	969.09247	-905.01270	584.48792	981.96173	-900.29633	402.37085	995.59479	-682.71252	527.39545	989.32581	-678.95581	332.20538	679.87372	-919.25128	323.44037	647.74023	-897.54797	374.54568	605.12354	-892.69086	355.48065	639.03174	-906.71954	447.78400	512.37665	-824.12061	320.89157	515.25635	-803.76392	302.06424	415.04031	-772.55804	307.04037	333.82013	-750.62195	329.14264	324.79388	-799.30963	319.96710	364.56134	-798.92310	434.21158	121.10197	-728.68658	346.74423	116.18921	-714.97235	387.61642	57.74950	-632.50464	401.83582	39.27459	-938.14551	433.02090	45.34738	-845.69580	310.31677	40.96518	-827.98047	615.85638	755.48328	-1019.90610	614.28296	691.02606	-1038.38830	660.08215	660.35370	-1010.99110	658.95715	717.13202	-997.39569	536.34143	545.44006	-1025.87340	662.80060	554.88715	-990.77191	663.42261	438.04602	-973.85999	648.08167	401.18716	-972.18640	632.50537	354.29126	-958.85205	661.80194	370.38104	-916.37671	533.69543	186.16682	-854.91858	617.44513	181.74234	-814.12622	555.69415	153.08165	-732.66980	580.57855	47.02685	-1013.25810	541.54211	69.12882	-928.26074	655.60345	77.89159	-898.32220	431.92215	1497.50200	-761.57458	425.93774	1246.06560	-685.32135	272.20868	1463.22780	-844.79730	595.91711	1465.54190	-800.58417	449.92059	1422.04870	-910.79260	547.74908	1398.48430	-688.49420
4586	22.92	330.31445	968.54242	-903.74115	584.10266	981.87305	-899.44159	402.61154	995.38245	-681.64691	527.70428	989.11151	-677.96301	332.01434	678.88580	-915.98376	323.46988	646.97034	-894.11029	374.54596	604.36218	-889.09937	355.37448	638.18256	-903.42749	447.92004	512.06061	-819.77209	320.96884	515.11169	-799.31134	302.32144	415.14191	-767.58636	307.18668	333.91370	-745.32324	329.25171	324.75504	-794.13904	320.07678	364.56583	-793.95605	434.12653	120.96725	-723.98737	346.86057	116.32892	-708.94043	387.67081	57.82137	-626.48328	401.84555	39.22200	-932.05292	433.01834	45.36532	-839.66968	310.03207	41.17020	-821.91925	613.93286	756.67761	-1020.13270	612.47809	692.43994	-1039.06320	658.68744	661.61981	-1012.35050	657.47772	718.38739	-998.44641	535.12531	546.45868	-1026.94910	661.68536	555.86523	-992.75739	662.72717	438.50198	-978.37158	647.49902	401.48001	-977.75922	632.24762	354.16241	-965.66351	661.55994	369.24759	-922.97217	534.56165	182.52489	-866.82562	618.33667	177.21048	-825.92719	556.61646	145.55777	-745.55774	582.10162	49.08666	-1029.61540	542.90601	68.21587	-944.05005	656.86676	76.44199	-913.55420	432.18240	1497.29080	-761.54626	425.88751	1246.01490	-684.86060	272.62051	1463.03130	-845.13239	596.22693	1465.08670	-800.16486	450.51495	1421.49770	-910.63043	547.67456	1398.35560	-688.02179
